# xmcd
#
# Track frame offsets:
#	150
#	22706
#	39163
#	57557
#	73130
#	93977
#	117596
#	139685
#	161065
#	185219
#	202137
#	216779
#	232189
#	248121
#	266171
#	282362
#	296532
#	310645
#	333419
# Disc length: 4626 seconds
# Revision: 1
# Processed by: cddbd v1.5.2PL0 Copyright (c) Steve Scherf et al.
#
# Submitted via: libkcddb 0.20
#
DISCID=2b121013
DTITLE=El Nino Miguel - Diferente (and La guitarra de ...)
DYEAR=2005
DGENRE=Country
TTITLE0=Vals Flamenco
TTITLE1=A mi Padre
TTITLE2=Vinos y Caballos
TTITLE3=Recuerdo de la Virgen del Rocio
TTITLE4=Potpourri[Orgullo-Morerias-El Conquero]
TTITLE5=Brisas de Huelva
TTITLE6=Entre Mazagon y Sanlucar
TTITLE7=En el Puente Nicoba
TTITLE8=Mi Sentimiento
TTITLE9=Diferente
TTITLE10=Desde el Condado
TTITLE11=Recuerdos
TTITLE12=Suenos de la Alhambra
TTITLE13=Minas de Riotinto
TTITLE14=Lamento
TTITLE15=En el Tablao
TTITLE16=Embrujo y magia
TTITLE17=Los Pescadores
TTITLE18=Cuevas de la Joya
EXTD=Rerecording of 'Diferente'(1975) and 'La guitarra de N.m.'(1976)
EXTT0=Vals
EXTT1=Farruca
EXTT2=Bulerias
EXTT3=
EXTT4=
EXTT5=Fandangos
EXTT6=Alegrias
EXTT7=Solea
EXTT8=Rumba
EXTT9=Rumba
EXTT10=Bulerias
EXTT11=Bulerias por Rondena
EXTT12=Medias Granainas
EXTT13=Tarantos
EXTT14=Vals Flamenco
EXTT15=Zapateado
EXTT16=Zambra
EXTT17=Farruca
EXTT18=Rumba
PLAYORDER=
